<?xml version="1.0" encoding="utf-8"?>
<!-- Generator: Adobe Illustrator 21.0.0, SVG Export Plug-In . SVG Version: 6.00 Build 0)  -->
<svg version="1.1" id="Layer_1" xmlns="http://www.w3.org/2000/svg" xmlns:xlink="http://www.w3.org/1999/xlink" x="0px" y="0px"
	 width="45.6px" height="30px" viewBox="0 0 45.6 30" style="enable-background:new 0 0 45.6 30;" xml:space="preserve">
<polygon id="XMLID_61_" points="27.2,0 22.8,4.4 18.4,0 15.6,2.8 20,7.2 15.6,11.6 18.4,14.4 22.8,10 27.2,14.4 30,11.6 25.6,7.2 
	30,2.8 "/>
<g id="XMLID_403_">
	<rect id="XMLID_60_" y="15.6" width="14.4" height="14.4"/>
</g>
<g id="XMLID_57_">
	<polygon id="XMLID_59_" points="22.8,22.8 15.6,15.6 30,15.6 	"/>
	<polygon id="XMLID_58_" points="22.8,30 15.6,22.8 30,22.8 	"/>
</g>
<g id="XMLID_9_">
	<rect id="XMLID_18_" x="31.2" y="15.6" width="14.4" height="4.2"/>
	<rect id="XMLID_55_" x="31.2" y="20.7" width="14.4" height="4.2"/>
	<rect id="XMLID_53_" x="31.2" y="25.8" width="14.4" height="4.2"/>
</g>
<g id="XMLID_404_">
	<path id="XMLID_347_" d="M7.2,0C3.2,0,0,3.2,0,7.2s3.2,7.2,7.2,7.2s7.2-3.2,7.2-7.2S11.2,0,7.2,0 M7.2,10.8c-2,0-3.6-1.6-3.6-3.6
		c0-2,1.6-3.6,3.6-3.6c2,0,3.6,1.6,3.6,3.6C10.8,9.2,9.2,10.8,7.2,10.8"/>
</g>
<path id="XMLID_346_" d="M38.4,0c-4,0-7.2,3.2-7.2,7.2s3.2,7.2,7.2,7.2s7.2-3.2,7.2-7.2S42.4,0,38.4,0"/>
</svg>
